<?xml version="1.0" encoding="utf-8"?>
<!-- Generator: Adobe Illustrator 19.1.0, SVG Export Plug-In . SVG Version: 6.00 Build 0)  -->
<svg version="1.1" xmlns="http://www.w3.org/2000/svg" xmlns:xlink="http://www.w3.org/1999/xlink" x="0px" y="0px"
	 viewBox="0 0 288 288" enable-background="new 0 0 288 288" xml:space="preserve">
<g id="Group_1_copy_2_1_">
	<g id="Rectangle_1_copy_xA0_Image_1_" display="none">
	</g>
	<g id="Group_4_1_">
		<g id="Station" display="none">
		</g>
		<g id="Mutation_xA0_Image_1_" display="none">
		</g>
	</g>
</g>
<g id="Layer_9">
</g>
<g id="Forma_1_xA0_Image_5_">
	<g id="Forma_1_2_">
		<g>
			<linearGradient id="SVGID_1_" gradientUnits="userSpaceOnUse" x1="144.053" y1="267.613" x2="144.053" y2="20.4732">
				<stop  offset="0" style="stop-color:#8F74B0"/>
				<stop  offset="1" style="stop-color:#CA55CB"/>
			</linearGradient>
			<path fill="url(#SVGID_1_)" d="M275.4,240.1c-4.8-16.1-11.7-30.7-25.8-40.4c-10.4-7.3-23.7-7.9-36.2-6.6V87.3
				c11.8-1.8,33.9-8.7,24.2-36.2c-11.7-33.2-8.3-2.5-24.7,8.1c-3.2-21.9-21.9-38.7-44.5-38.7h-43.9c-24.9,0-45,20.3-45,45.3v2.6
				C71,65,60.9,56.9,60.3,37.5c-1.1-32.2-49,81,19.1,65.8v86.5c-19.9-8.2-43.7-0.7-61.4,12.2c-14,10.1-0.5,33.7,13.6,23.5
				c3.7-2.7,8.3-5.6,13.2-8c-8.8,7.3-15.2,17.5-17.3,30.6c-2.7,17.2,23.3,24.5,26.1,7.2c2.6-16.6,14.7-23.3,28.9-24.7
				c6.5,16.9,22.8,29,42,29h43.9c18.8,0,34.9-11.6,41.6-28c1,0.7,1.9,1.5,2.9,2.6c0.7,0.7,2,4.2,2.8,7.3c1,4.2,1.1,8.6,1.1,13.1
				c0.1,17.5,27.2,17.5,27,0c-0.1-10.5-1.4-20.6-5.6-29.7c6.2,5.3,9,15.3,11.2,22.5C254.3,264.1,280.4,256.9,275.4,240.1z
				 M187.2,158.4h-12.5l-13.1,16.2l-14.4-16.2h-12.7l-10.1,23c0,0-3.3-15.1-5.4-23H107v-8.1h80.2V158.4z M148.7,140.2
				c-25,0-45.4-19.5-47.2-44.2c-0.1-1.2-0.2-2.3-0.2-3.5c0-7.2,1.6-14,4.5-20.1c7.5-16.3,23.9-27.6,42.9-27.6
				c26.2,0,47.4,21.3,47.4,47.7C196.1,118.9,174.9,140.2,148.7,140.2z M147.8,53.3c-3.5,0-6.4,14.2-6.9,32.7
				c-10,0.3-18.5,1.4-23.9,2.8c-3.4,0.9-5.5,2-5.9,3.2c0,0.1-0.1,0.3-0.1,0.4c0,3.2,12.9,5.8,29.9,6.4c0.5,18.5,3.4,32.7,6.9,32.7
				c3.5,0,6.4-14.2,6.9-32.7c17-0.6,29.9-3.2,29.9-6.4c0-3.2-12.9-5.8-29.9-6.4C154.2,67.5,151.3,53.3,147.8,53.3z"/>
		</g>
	</g>
</g>
<g id="Forma_1_xA0_Image_3_">
</g>
<g id="Forma_1_xA0_Image_1_">
</g>
</svg>
