<?xml version="1.0" encoding="utf-8"?>
<!-- Generator: Adobe Illustrator 19.1.0, SVG Export Plug-In . SVG Version: 6.00 Build 0)  -->
<svg version="1.1" xmlns="http://www.w3.org/2000/svg" xmlns:xlink="http://www.w3.org/1999/xlink" x="0px" y="0px"
	 viewBox="0 0 288 288" enable-background="new 0 0 288 288" xml:space="preserve">
<g id="Group_1_copy_2_1_">
	<g id="Rectangle_1_copy_xA0_Image_1_" display="none">
	</g>
	<g id="Group_4_1_">
		<g id="Station" display="none">
		</g>
		<g id="Mutation_xA0_Image_1_" display="none">
		</g>
	</g>
</g>
<g id="Layer_9">
</g>
<g id="Forma_1_xA0_Image_5_">
	<g id="Forma_1">
		<g>
			<linearGradient id="SVGID_1_" gradientUnits="userSpaceOnUse" x1="144.0065" y1="266.9845" x2="144.0065" y2="28.2907">
				<stop  offset="0" style="stop-color:#8F74B0"/>
				<stop  offset="1" style="stop-color:#CA55CB"/>
			</linearGradient>
			<path fill="url(#SVGID_1_)" d="M254.4,120.5c-5.5,0-10.2,3.3-12.3,8.1c-0.7,1.6-1.1,3.4-1.1,5.4c0,3.1,1.1,6,2.9,8.2
				c2.5,3.1,6.2,5.2,10.5,5.2c7.4,0,13.4-6,13.4-13.4C267.8,126.5,261.8,120.5,254.4,120.5z M254.4,96.8c-5.8,0-11.2,1.5-15.9,4.2
				l-2.9-22c0-25.4-20.6-46-46-46h-86.7c-25.4,0-46,20.6-46,46l-3.1,23.8c-5.3-3.7-11.8-6-18.8-6c-18,0-32.6,14.6-32.6,32.6v9.2
				c0,18,14.6,32.6,32.6,32.6c3.5,0,6.9-0.6,10-1.6l-1.2,8.9c-8.8,3.1-16.8,8.4-22.2,16.1c-8.6,12.2-8.6,25.9-7.8,40.3
				c0.5,8.9,14.3,8.9,13.8,0c-0.5-9.3-1.4-19,2.5-27.8c2.5-5.7,7.8-10.6,13.8-13.7c3.9,20.4,21.3,36,42.5,37.2
				c-0.1,0.6-0.2,1.3-0.2,2V250c0,9.4,7.6,17,17,17c9.4,0,17-7.6,17-17v-17.6c0-0.6-0.1-1.2-0.2-1.8h44.7c-0.1,0.6-0.2,1.2-0.2,1.8
				V250c0,9.4,7.6,17,17,17c9.4,0,17-7.6,17-17v-17.6c0-0.6-0.1-1.2-0.2-1.8h5.2c22.9,0,41.9-16.8,45.4-38.7
				c12.5,8.4,13.3,26.7,12.8,42.2c-0.3,8.9,13.5,8.9,13.8,0c0.7-23.2-3.6-49.7-27.1-57.9l-0.8-5.7c2.2,0.5,4.5,0.7,6.8,0.7
				c18,0,32.6-14.6,32.6-32.6v-9.2C287,111.3,272.4,96.8,254.4,96.8z M47.5,150.9C44,153.5,39.7,155,35,155
				c-11.6,0-21.1-9.4-21.1-21.1c0-11.6,9.4-21.1,21.1-21.1c6.7,0,12.5,3.1,16.4,8c2.9,3.6,4.7,8.1,4.7,13.1
				C56.1,140.9,52.7,147,47.5,150.9z M155.9,42.4c2-1.5,4.9-1.1,6.4,0.9L171,55c1.1,1.5,1.2,3.4,0.3,5c-0.3,0.6-0.7,1.1-1.3,1.5
				c-0.8,0.6-1.8,0.9-2.7,0.9c-0.7,0-1.4-0.2-2.1-0.5c-0.6-0.3-1.2-0.8-1.6-1.4L155,48.9C153.5,46.8,153.9,43.9,155.9,42.4z
				 M118.3,54.2l13.8-11.6c2-1.6,4.8-1.4,6.5,0.6c1.6,1.9,1.4,4.9-0.6,6.5l-13.4,11.3l-0.4,0.3c-0.9,0.7-1.9,1.1-3,1.1
				c-1.3,0-2.6-0.6-3.5-1.6c-0.4-0.5-0.7-1.1-0.9-1.8C116.4,57.2,116.9,55.4,118.3,54.2z M199.3,199.8l-13.3-34.3l-38.2,38.2
				l-38.2-38.2l-13.9,35.9c-13.3-8.1-22.3-22.6-22.3-39.4v-42c0-11.5,4.3-22,11.2-30.1l24.1,32.3l27.4-48.3h20.6l27.4,48.3L208,90
				c6.9,8.1,11.1,18.5,11.1,29.9v42h0C219.1,177.6,211.2,191.5,199.3,199.8z M254.4,155c-3.3,0-6.4-0.8-9.1-2.2
				c-7.1-3.4-12-10.6-12-18.9c0-6.4,2.9-12.1,7.4-15.9c3.7-3.2,8.4-5.2,13.7-5.2c11.6,0,21.1,9.4,21.1,21.1
				C275.5,145.6,266,155,254.4,155z M35,120.2c-7.6,0-13.7,6.1-13.7,13.7c0,7.6,6.1,13.7,13.7,13.7c7.6,0,13.7-6.1,13.7-13.7
				C48.7,126.4,42.6,120.2,35,120.2z"/>
		</g>
	</g>
</g>
<g id="Forma_1_xA0_Image_3_">
</g>
<g id="Forma_1_xA0_Image_1_">
</g>
</svg>
