<?xml version="1.0" encoding="utf-8"?>
<!-- Generator: Adobe Illustrator 19.1.0, SVG Export Plug-In . SVG Version: 6.00 Build 0)  -->
<svg version="1.1" xmlns="http://www.w3.org/2000/svg" xmlns:xlink="http://www.w3.org/1999/xlink" x="0px" y="0px"
	 viewBox="0 0 288 288" enable-background="new 0 0 288 288" xml:space="preserve">
<g id="Group_1_copy_2_1_">
	<g id="Rectangle_1_copy_xA0_Image_1_" display="none">
	</g>
	<g id="Group_4_1_">
		<g id="Station" display="none">
		</g>
		<g id="Mutation_xA0_Image_1_" display="none">
		</g>
	</g>
</g>
<g id="Layer_9">
</g>
<g id="Forma_1_xA0_Image_5_">
	<g id="Forma_1_4_">
		<g>
			<linearGradient id="SVGID_1_" gradientUnits="userSpaceOnUse" x1="144" y1="274.3975" x2="144" y2="15.103">
				<stop  offset="0" style="stop-color:#8F74B0"/>
				<stop  offset="1" style="stop-color:#CA55CB"/>
			</linearGradient>
			<path fill="url(#SVGID_1_)" d="M257.5,202.4c-4.7-22.1-32.2-41.4-32.2-41.4c-5.6-2.9-9.6-9.6-12.4-17c-2.1,0-4.3,0.3-6.8,1.1
				c-0.4,0.1-0.8,0.3-1.2,0.4c-8.2,2.6-16.6,5.3-25,7c-2,0.4-3.9,0.7-5.7,0.9c-14.8,1.7-26.5-2.3-38.7-12.5
				c-11.1-9.3-3.3-23,7.7-26.1v18h22.5v-11.3c5.5,0.9,11.8-0.5,18-2.5v16.7h22.5v-23.6c0.1,0,0.1,0,0.2,0
				c-2.9-54.4-31.1-97.1-65.5-97.1C104.4,15.1,75,62.8,75,121.5c-4.7,39.5-10.1,24.8-29.5,48.2c-19.5,23.4-16.1,40.2-16.1,40.2
				c0,14.6,15.5,27.7,40,36.6v17c0,6.1,4.9,11,11,11c6.1,0,11-4.9,11-11v-10.8c5,1.1,10.2,2,15.6,2.8v8c0,6.1,4.9,11,11,11
				c6.1,0,11-4.9,11-11v-5.8c5,0.3,10,0.4,15.2,0.4c5.6,0,11.1-0.2,16.5-0.5v5.9c0,6.1,4.9,11,11,11c6.1,0,11-4.9,11-11v-8.1
				c5.4-0.8,10.6-1.8,15.6-2.9v11c0,6.1,4.9,11,11,11c6.1,0,11-4.9,11-11V246c11.8-4.4,21.4-9.8,28.1-15.9
				c6.8-6.1,10.6-13,10.6-20.2C258.9,207.3,258.4,204.9,257.5,202.4z M132,72c0-8.9,7.2-16.1,16.1-16.1h22.2
				c8.9,0,16.1,7.2,16.1,16.1v7.4c0,8.9-7.2,16.1-16.1,16.1h-22.2c-8.9,0-16.1-7.2-16.1-16.1V72z M149.5,81c6.1,0,11.1-4.9,11.1-11
				c0-6.1-5-11-11.1-11c-6.1,0-11.1,4.9-11.1,11C138.4,76.1,143.4,81,149.5,81z"/>
		</g>
	</g>
</g>
<g id="Forma_1_xA0_Image_3_">
</g>
<g id="Forma_1_xA0_Image_1_">
</g>
</svg>
